<?xml version="1.0" encoding="UTF-8" standalone="no"?>
<!DOCTYPE svg PUBLIC "-//W3C//DTD SVG 1.1//EN" "http://www.w3.org/Graphics/SVG/1.1/DTD/svg11.dtd">
<svg xmlns="http://www.w3.org/2000/svg" xmlns:xlink="http://www.w3.org/1999/xlink" version="1.1" width="470.1778pt" height="455.30555pt" viewBox="0 0 470.1778 455.30555">
<g enable-background="new">
<path transform="matrix(2.7777777,0,0,-2.7777777,74.33888,388.5722)" stroke-width=".09962" stroke-linecap="butt" stroke-miterlimit="10" stroke-linejoin="miter" fill="none" stroke="#FFFFFF" d="M 0 0 L 113.38724 0 M 0 28.3468 L 113.38724 28.3468 M 0 56.69362 L 113.38724 56.69362 M 0 85.04042 L 113.38724 85.04042 M 0 113.37727 L 113.38724 113.37727 M 0 0 L 0 113.38724 M 28.3468 0 L 28.3468 113.38724 M 56.69362 0 L 56.69362 113.38724 M 85.04042 0 L 85.04042 113.38724 M 113.37727 0 L 113.37727 113.38724 M 113.38724 113.38724 "/>
<path transform="matrix(2.7777777,0,0,-2.7777777,74.33888,388.5722)" stroke-width=".09962" stroke-linecap="butt" stroke-miterlimit="10" stroke-linejoin="miter" fill="none" stroke="#FFFFFF" d="M 0 113.38724 L -20.04422 133.43148 "/>
<symbol id="font_0_1">
<path d="M .14500001 .117000009 C .096 .037 .052 .034 .012000002 .031000002 C .0050000029 .030000002 0 .022000002 0 .013 C 0 .007 .0040000008 0 .014000002 0 C .033 0 .080000009 .003 .09900001 .003 C .12100001 .003 .17500001 0 .19700001 0 C .20300001 0 .21600002 0 .21600002 .018000002 C .21600002 .030000002 .20400001 .031000002 .201 .031000002 C .19200002 .032 .15400002 .034 .15400002 .064 C .15400002 .078 .165 .097 .16800002 .102000009 L .24700001 .231 L .508 .231 C .51100006 .208 .514 .17400001 .517 .149 C .521 .11000001 .527 .066 .527 .063 C .527 .048 .513 .031000002 .455 .031000002 C .44500003 .031000002 .432 .031000002 .432 .013 C .432 .002 .44000004 0 .44700004 0 C .46600003 0 .49 .002 .51000007 .002 C .53000006 .002 .554 .003 .57000008 .003 C .60300007 .003 .605 .003 .629 .002 C .64500007 .001 .66800007 0 .684 0 C .69000008 0 .703 0 .703 .018000002 C .703 .031000002 .69200006 .031000002 .68 .031000002 C .62 .031000002 .619 .038000004 .61600008 .067 L .546 .689 C .544 .711 .54300007 .716 .526 .716 C .512 .716 .50600007 .70900008 .49800004 .69600006 L .14500001 .117000009 M .266 .26200003 L .468 .592 L .50500008 .26200003 L .266 .26200003 Z "/>
</symbol>
<symbol id="font_0_2">
<path d="M .116 .076000008 C .10700001 .040000004 .105000007 .031000002 .030000005 .031000002 C .011 .031000002 0 .031000002 0 .013 C 0 0 .010000002 0 .028 0 L .39200003 0 C .554 0 .67300006 .11800001 .67300006 .215 C .67300006 .286 .614 .34600003 .51500007 .35700003 C .62900009 .379 .7260001 .455 .7260001 .544 C .7260001 .62200006 .65400007 .683 .535 .683 L .193 .683 C .17500001 .683 .163 .683 .163 .665 C .163 .652 .172 .652 .193 .652 C .19700001 .652 .21500002 .652 .23100002 .65000006 C .24800001 .648 .25500003 .646 .25500003 .63500007 C .25500003 .63000008 .25400005 .62600007 .25100003 .615 L .116 .076000008 M .272 .36800004 L .33300004 .61300006 C .34200005 .64900007 .34400005 .652 .38600005 .652 L .521 .652 C .62500008 .652 .63400009 .573 .63400009 .54800006 C .63400009 .45900003 .541 .36800004 .42800004 .36800004 L .272 .36800004 M .22400002 .031000002 C .21 .031000002 .20800002 .031000002 .20400001 .032 C .194 .033 .191 .034 .191 .041 C .191 .044000005 .191 .046000005 .19600001 .064 L .26500003 .34300003 L .453 .34300003 C .51500007 .34300003 .578 .316 .578 .22500001 C .578 .126 .48700006 .031000002 .36700005 .031000002 L .22400002 .031000002 Z "/>
</symbol>
<use xlink:href="#font_0_1" transform="matrix(17.611504,17.611504,17.611504,-17.611504,39.698869,25.729386)"/>
<use xlink:href="#font_0_2" transform="matrix(17.611504,17.611504,17.611504,-17.611504,53.45344,39.48396)"/>
<symbol id="font_0_3">
<path d="M .72300007 .70000007 C .726 .7120001 .726 .71400007 .726 .716 C .726 .71700009 .725 .72700008 .71400007 .72700008 C .70800009 .72700008 .70500007 .72400006 .698 .716 L .637 .64900007 C .633 .64400008 .629 .64000007 .628 .64000007 C .62700006 .64000007 .62600007 .64100006 .62 .64800009 C .605 .66800007 .56 .72700008 .45600004 .72700008 C .22700003 .72700008 0 .505 0 .27700005 C 0 .11400001 .119 0 .28000004 0 C .38400004 0 .46600003 .054000006 .50500008 .089 C .596 .17 .61300006 .25800003 .61300006 .26200003 C .61300006 .26600004 .61100009 .27300004 .59900006 .27300004 C .58800008 .27300004 .586 .26700003 .58500006 .263 C .536 .102000009 .39300005 .031000004 .293 .031000004 C .19600001 .031000004 .09300001 .09 .09300001 .24100001 C .09300001 .286 .10800001 .44400005 .20900002 .56700006 C .26900003 .63900008 .367 .69600006 .463 .69600006 C .574 .69600006 .633 .61100009 .633 .50100007 C .633 .46700005 .63000008 .46000005 .63000008 .45200003 C .63000008 .44100005 .642 .44100005 .64500007 .44100005 C .65800008 .44100005 .65800008 .44300006 .66300007 .46200005 L .72300007 .70000007 Z "/>
</symbol>
<symbol id="font_0_4">
<path d="M .11600001 .076000008 C .10700001 .040000004 .105000007 .031000002 .030000002 .031000002 C .011 .031000002 0 .031000002 0 .013 C 0 0 .010000002 0 .028000005 0 L .365 0 C .579 0 .778 .21200001 .778 .42800004 C .778 .565 .69200006 .683 .536 .683 L .193 .683 C .17500001 .683 .163 .683 .163 .665 C .163 .652 .172 .652 .193 .652 C .19700001 .652 .21500002 .652 .23100002 .65000006 C .24800001 .648 .255 .646 .255 .63500007 C .255 .63000008 .254 .62600007 .251 .615 L .11600001 .076000008 M .33600004 .61300006 C .34500004 .64900007 .347 .652 .389 .652 L .50200006 .652 C .606 .652 .689 .59400007 .689 .46500004 C .689 .407 .66400006 .24700001 .586 .148 C .54 .091000009 .45700003 .031000002 .347 .031000002 L .22700002 .031000002 C .21300002 .031000002 .21100001 .031000002 .207 .032 C .19700001 .033 .194 .034 .194 .041 C .194 .044000005 .194 .046000005 .19900002 .064 L .33600004 .61300006 Z "/>
</symbol>
<use xlink:href="#font_0_3" transform="matrix(17.611504,17.611504,17.611504,-17.611504,13.555167,50.91064)"/>
<use xlink:href="#font_0_4" transform="matrix(17.611504,17.611504,17.611504,-17.611504,28.014229,64.594799)"/>
<symbol id="font_1_1">
<path d="M .421 .34200005 C .421 .42200003 .416 .50200006 .381 .57600006 C .335 .67200008 .25300003 .688 .211 .688 C .15100001 .688 .07800001 .66200008 .037000006 .56900009 C .0050000029 .5 0 .42200003 0 .34200005 C 0 .26700003 .0040000008 .177 .045000007 .101 C .088 .020000002 .161 0 .21000001 0 C .264 0 .34 .021000002 .384 .116000007 C .416 .185 .421 .263 .421 .34200005 M .21000001 .022000002 C .171 .022000002 .112 .047000003 .094 .143 C .083000008 .20300001 .083000008 .29500003 .083000008 .35400004 C .083000008 .41800005 .083000008 .48400004 .091000009 .53800007 C .11 .65700009 .185 .66600009 .21000001 .66600009 C .243 .66600009 .30900003 .64800009 .328 .549 C .338 .49300004 .338 .41700004 .338 .35400004 C .338 .279 .338 .21100001 .32700003 .147 C .312 .052 .255 .022000002 .21000001 .022000002 Z "/>
</symbol>
<use xlink:href="#font_1_1" transform="matrix(27.673888,0,0,-27.673888,100.9515,43.76715)"/>
<use xlink:href="#font_1_1" transform="matrix(27.673888,0,0,-27.673888,114.788448,43.76715)"/>
<symbol id="font_1_2">
<path d="M .205 .64000007 C .205 .66400006 .205 .666 .18200003 .666 C .120000008 .60200008 .032000007 .60200008 0 .60200008 L 0 .57100006 C .020000004 .57100006 .07900001 .57100006 .13100001 .597 L .13100001 .079 C .13100001 .043 .128 .031000002 .038000004 .031000002 L .0060000049 .031000002 L .0060000049 0 C .04100001 .003 .128 .003 .168 .003 C .20800002 .003 .29500003 .003 .33000005 0 L .33000005 .031000002 L .29800005 .031000002 C .20800002 .031000002 .205 .042000005 .205 .079 L .205 .64000007 Z "/>
</symbol>
<use xlink:href="#font_1_1" transform="matrix(27.673888,0,0,-27.673888,179.69039,43.76715)"/>
<use xlink:href="#font_1_2" transform="matrix(27.673888,0,0,-27.673888,194.91103,43.158327)"/>
<use xlink:href="#font_1_2" transform="matrix(27.673888,0,0,-27.673888,259.81575,43.158327)"/>
<use xlink:href="#font_1_2" transform="matrix(27.673888,0,0,-27.673888,273.65269,43.158327)"/>
<use xlink:href="#font_1_2" transform="matrix(27.673888,0,0,-27.673888,338.55464,43.158327)"/>
<use xlink:href="#font_1_1" transform="matrix(27.673888,0,0,-27.673888,351.00788,43.76715)"/>
<use xlink:href="#font_1_1" transform="matrix(27.673888,0,0,-27.673888,22.209849,122.50604)"/>
<use xlink:href="#font_1_1" transform="matrix(27.673888,0,0,-27.673888,36.04679,122.50604)"/>
<use xlink:href="#font_1_1" transform="matrix(27.673888,0,0,-27.673888,22.20989,201.24771)"/>
<use xlink:href="#font_1_2" transform="matrix(27.673888,0,0,-27.673888,37.43053,200.63889)"/>
<use xlink:href="#font_1_2" transform="matrix(27.673888,0,0,-27.673888,23.593586,279.37779)"/>
<use xlink:href="#font_1_2" transform="matrix(27.673888,0,0,-27.673888,37.43053,279.37779)"/>
<use xlink:href="#font_1_2" transform="matrix(27.673888,0,0,-27.673888,23.593586,358.11668)"/>
<use xlink:href="#font_1_1" transform="matrix(27.673888,0,0,-27.673888,36.046838,358.7255)"/>
<use xlink:href="#font_1_2" transform="matrix(27.673888,0,0,-27.673888,266.73243,200.63889)"/>
<use xlink:href="#font_1_2" transform="matrix(27.673888,0,0,-27.673888,187.99353,279.37779)"/>
<use xlink:href="#font_1_2" transform="matrix(27.673888,0,0,-27.673888,266.73243,279.37779)"/>
<symbol id="font_2_1">
<path d="M .120000008 .048000009 C .11600001 .034999998 .11500001 .033000009 .11500001 .027999998 C .11500001 .0059999974 .13400002 0 .14400001 0 C .14900002 0 .17100002 .003000006 .18100001 .026000008 C .18400002 .033999996 .18900001 .067 .216 .209 C .22500001 .208 .23200001 .207 .24900003 .207 C .41500003 .207 .569 .36400003 .569 .522 C .569 .6 .53000006 .66 .45499999 .66 C .31 .66 .25 .46600003 .19000001 .27100004 C .082 .291 .026000005 .347 .026000005 .41900004 C .026000005 .44700004 .049000008 .55700007 .10900001 .62600007 C .11700001 .63500007 .11700001 .637 .11700001 .63900008 C .11700001 .643 .11500001 .64900007 .105000007 .64900007 C .07700001 .64900007 0 .504 0 .40800003 C 0 .314 .066 .24100001 .17300001 .216 L .120000008 .048000009 M .25800003 .26500003 C .25 .26500003 .24800001 .26500003 .24000003 .266 C .22800003 .266 .22700002 .26700003 .22700002 .27 C .22700002 .272 .244 .36300005 .24700003 .37800003 C .278 .50600007 .356 .602 .44500003 .602 C .514 .602 .541 .54800006 .541 .5 C .541 .38700003 .412 .26500003 .25800003 .26500003 Z "/>
</symbol>
<use xlink:href="#font_2_1" transform="matrix(27.673888,0,0,-27.673888,184.78092,201.0218)"/>
<use xlink:href="#font_2_1" transform="matrix(27.673888,0,0,-27.673888,263.5198,358.49958)"/>
<use xlink:href="#font_2_1" transform="matrix(27.673888,0,0,-27.673888,342.26148,358.49958)"/>
<path transform="matrix(2.7777777,0,0,-2.7777777,74.33888,388.5722)" d="M 34.0161 76.38232 L 34.0161 37.00493 C 34.0161 35.35422 35.35422 34.0161 37.00493 34.0161 L 76.38232 34.0161 C 78.03302 34.0161 79.37115 35.35422 79.37115 37.00493 L 79.37115 76.38232 C 79.37115 78.03302 78.03302 79.37115 76.38232 79.37115 L 37.00493 79.37115 C 35.35422 79.37115 34.0161 78.03302 34.0161 76.38232 Z M 79.37115 34.0161 " fill="#0000ff" fill-opacity=".25"/>
<path transform="matrix(2.7777777,0,0,-2.7777777,74.33888,388.5722)" stroke-width=".3985" stroke-linecap="butt" stroke-miterlimit="10" stroke-linejoin="miter" fill="none" stroke="#FFFFFF" d="M 34.0161 76.38232 L 34.0161 37.00493 C 34.0161 35.35422 35.35422 34.0161 37.00493 34.0161 L 76.38232 34.0161 C 78.03302 34.0161 79.37115 35.35422 79.37115 37.00493 L 79.37115 76.38232 C 79.37115 78.03302 78.03302 79.37115 76.38232 79.37115 L 37.00493 79.37115 C 35.35422 79.37115 34.0161 78.03302 34.0161 76.38232 Z M 79.37115 34.0161 "/>
</g>
</svg>
