<?xml version="1.0" encoding="UTF-8" standalone="no"?>
<!DOCTYPE svg PUBLIC "-//W3C//DTD SVG 1.1//EN" "http://www.w3.org/Graphics/SVG/1.1/DTD/svg11.dtd">
<svg xmlns="http://www.w3.org/2000/svg" xmlns:xlink="http://www.w3.org/1999/xlink" version="1.1" width="963.9778pt" height="454.22224pt" viewBox="0 0 963.9778 454.22224">
<g enable-background="new">
<path transform="matrix(2.8204165,0,0,-2.8204165,75.47999,394.53395)" stroke-width=".09962" stroke-linecap="butt" stroke-miterlimit="10" stroke-linejoin="miter" fill="none" stroke="#000000" d="M 0 0 L 113.38724 0 M 0 28.3468 L 113.38724 28.3468 M 0 56.69362 L 113.38724 56.69362 M 0 85.04042 L 113.38724 85.04042 M 0 113.37727 L 113.38724 113.37727 M 0 0 L 0 113.38724 M 28.3468 0 L 28.3468 113.38724 M 56.69362 0 L 56.69362 113.38724 M 85.04042 0 L 85.04042 113.38724 M 113.37727 0 L 113.37727 113.38724 M 113.38724 113.38724 "/>
<path transform="matrix(2.8204165,0,0,-2.8204165,75.47999,394.53395)" stroke-width=".09962" stroke-linecap="butt" stroke-miterlimit="10" stroke-linejoin="miter" fill="none" stroke="#000000" d="M 0 113.38724 L -20.04422 133.43148 "/>
<symbol id="font_0_1">
<path d="M .14500001 .117000009 C .096 .037 .052 .034 .012000002 .031000002 C .0050000029 .030000002 0 .022000002 0 .013 C 0 .007 .0040000008 0 .014000002 0 C .033 0 .080000009 .003 .09900001 .003 C .12100001 .003 .17500001 0 .19700001 0 C .20300001 0 .21600002 0 .21600002 .018000002 C .21600002 .030000002 .20400001 .031000002 .201 .031000002 C .19200002 .032 .15400002 .034 .15400002 .064 C .15400002 .078 .165 .097 .16800002 .102000009 L .24700001 .231 L .508 .231 C .51100006 .208 .514 .17400001 .517 .149 C .521 .11000001 .527 .066 .527 .063 C .527 .048 .513 .031000002 .455 .031000002 C .44500003 .031000002 .432 .031000002 .432 .013 C .432 .002 .44000004 0 .44700004 0 C .46600003 0 .49 .002 .51000007 .002 C .53000006 .002 .554 .003 .57000008 .003 C .60300007 .003 .605 .003 .629 .002 C .64500007 .001 .66800007 0 .684 0 C .69000008 0 .703 0 .703 .018000002 C .703 .031000002 .69200006 .031000002 .68 .031000002 C .62 .031000002 .619 .038000004 .61600008 .067 L .546 .689 C .544 .711 .54300007 .716 .526 .716 C .512 .716 .50600007 .70900008 .49800004 .69600006 L .14500001 .117000009 M .266 .26200003 L .468 .592 L .50500008 .26200003 L .266 .26200003 Z "/>
</symbol>
<symbol id="font_0_2">
<path d="M .116 .076000008 C .10700001 .040000004 .105000007 .031000002 .030000005 .031000002 C .011 .031000002 0 .031000002 0 .013 C 0 0 .010000002 0 .028 0 L .39200003 0 C .554 0 .67300006 .11800001 .67300006 .215 C .67300006 .286 .614 .34600003 .51500007 .35700003 C .62900009 .379 .7260001 .455 .7260001 .544 C .7260001 .62200006 .65400007 .683 .535 .683 L .193 .683 C .17500001 .683 .163 .683 .163 .665 C .163 .652 .172 .652 .193 .652 C .19700001 .652 .21500002 .652 .23100002 .65000006 C .24800001 .648 .25500003 .646 .25500003 .63500007 C .25500003 .63000008 .25400005 .62600007 .25100003 .615 L .116 .076000008 M .272 .36800004 L .33300004 .61300006 C .34200005 .64900007 .34400005 .652 .38600005 .652 L .521 .652 C .62500008 .652 .63400009 .573 .63400009 .54800006 C .63400009 .45900003 .541 .36800004 .42800004 .36800004 L .272 .36800004 M .22400002 .031000002 C .21 .031000002 .20800002 .031000002 .20400001 .032 C .194 .033 .191 .034 .191 .041 C .191 .044000005 .191 .046000005 .19600001 .064 L .26500003 .34300003 L .453 .34300003 C .51500007 .34300003 .578 .316 .578 .22500001 C .578 .126 .48700006 .031000002 .36700005 .031000002 L .22400002 .031000002 Z "/>
</symbol>
<use xlink:href="#font_0_1" transform="matrix(17.881838,17.881838,17.881838,-17.881838,40.308237,26.124367)"/>
<use xlink:href="#font_0_2" transform="matrix(17.881838,17.881838,17.881838,-17.881838,54.27395,40.09008)"/>
<symbol id="font_0_3">
<path d="M .72300007 .70000007 C .726 .7120001 .726 .71400007 .726 .716 C .726 .71700009 .725 .72700008 .71400007 .72700008 C .70800009 .72700008 .70500007 .72400006 .698 .716 L .637 .64900007 C .633 .64400008 .629 .64000007 .628 .64000007 C .62700006 .64000007 .62600007 .64100006 .62 .64800009 C .605 .66800007 .56 .72700008 .45600004 .72700008 C .22700003 .72700008 0 .505 0 .27700005 C 0 .11400001 .119 0 .28000004 0 C .38400004 0 .46600003 .054000006 .50500008 .089 C .596 .17 .61300006 .25800003 .61300006 .26200003 C .61300006 .26600004 .61100009 .27300004 .59900006 .27300004 C .58800008 .27300004 .586 .26700003 .58500006 .263 C .536 .102000009 .39300005 .031000004 .293 .031000004 C .19600001 .031000004 .09300001 .09 .09300001 .24100001 C .09300001 .286 .10800001 .44400005 .20900002 .56700006 C .26900003 .63900008 .367 .69600006 .463 .69600006 C .574 .69600006 .633 .61100009 .633 .50100007 C .633 .46700005 .63000008 .46000005 .63000008 .45200003 C .63000008 .44100005 .642 .44100005 .64500007 .44100005 C .65800008 .44100005 .65800008 .44300006 .66300007 .46200005 L .72300007 .70000007 Z "/>
</symbol>
<symbol id="font_0_4">
<path d="M .11600001 .076000008 C .10700001 .040000004 .105000007 .031000002 .030000002 .031000002 C .011 .031000002 0 .031000002 0 .013 C 0 0 .010000002 0 .028000005 0 L .365 0 C .579 0 .778 .21200001 .778 .42800004 C .778 .565 .69200006 .683 .536 .683 L .193 .683 C .17500001 .683 .163 .683 .163 .665 C .163 .652 .172 .652 .193 .652 C .19700001 .652 .21500002 .652 .23100002 .65000006 C .24800001 .648 .255 .646 .255 .63500007 C .255 .63000008 .254 .62600007 .251 .615 L .11600001 .076000008 M .33600004 .61300006 C .34500004 .64900007 .347 .652 .389 .652 L .50200006 .652 C .606 .652 .689 .59400007 .689 .46500004 C .689 .407 .66400006 .24700001 .586 .148 C .54 .091000009 .45700003 .031000002 .347 .031000002 L .22700002 .031000002 C .21300002 .031000002 .21100001 .031000002 .207 .032 C .19700001 .033 .194 .034 .194 .041 C .194 .044000005 .194 .046000005 .19900002 .064 L .33600004 .61300006 Z "/>
</symbol>
<use xlink:href="#font_0_3" transform="matrix(17.881838,17.881838,17.881838,-17.881838,13.763203,51.692094)"/>
<use xlink:href="#font_0_4" transform="matrix(17.881838,17.881838,17.881838,-17.881838,28.44421,65.586299)"/>
<symbol id="font_1_1">
<path d="M .421 .34200005 C .421 .42200003 .416 .50200006 .381 .57600006 C .335 .67200008 .25300003 .688 .211 .688 C .15100001 .688 .07800001 .66200008 .037000006 .56900009 C .0050000029 .5 0 .42200003 0 .34200005 C 0 .26700003 .0040000008 .177 .045000007 .101 C .088 .020000002 .161 0 .21000001 0 C .264 0 .34 .021000002 .384 .116000007 C .416 .185 .421 .263 .421 .34200005 M .21000001 .022000002 C .171 .022000002 .112 .047000003 .094 .143 C .083000008 .20300001 .083000008 .29500003 .083000008 .35400004 C .083000008 .41800005 .083000008 .48400004 .091000009 .53800007 C .11 .65700009 .185 .66600009 .21000001 .66600009 C .243 .66600009 .30900003 .64800009 .328 .549 C .338 .49300004 .338 .41700004 .338 .35400004 C .338 .279 .338 .21100001 .32700003 .147 C .312 .052 .255 .022000002 .21000001 .022000002 Z "/>
</symbol>
<use xlink:href="#font_1_1" transform="matrix(28.09868,0,0,-28.09868,102.5011,44.439004)"/>
<use xlink:href="#font_1_1" transform="matrix(28.09868,0,0,-28.09868,116.55044,44.439004)"/>
<symbol id="font_1_2">
<path d="M .205 .64000007 C .205 .66400006 .205 .666 .18200003 .666 C .120000008 .60200008 .032000007 .60200008 0 .60200008 L 0 .57100006 C .020000004 .57100006 .07900001 .57100006 .13100001 .597 L .13100001 .079 C .13100001 .043 .128 .031000002 .038000004 .031000002 L .0060000049 .031000002 L .0060000049 0 C .04100001 .003 .128 .003 .168 .003 C .20800002 .003 .29500003 .003 .33000005 0 L .33000005 .031000002 L .29800005 .031000002 C .20800002 .031000002 .205 .042000005 .205 .079 L .205 .64000007 Z "/>
</symbol>
<use xlink:href="#font_1_1" transform="matrix(28.09868,0,0,-28.09868,182.44863,44.439004)"/>
<use xlink:href="#font_1_2" transform="matrix(28.09868,0,0,-28.09868,197.9029,43.82083)"/>
<use xlink:href="#font_1_2" transform="matrix(28.09868,0,0,-28.09868,263.80393,43.82083)"/>
<use xlink:href="#font_1_2" transform="matrix(28.09868,0,0,-28.09868,277.85328,43.82083)"/>
<use xlink:href="#font_1_2" transform="matrix(28.09868,0,0,-28.09868,343.75148,43.82083)"/>
<use xlink:href="#font_1_1" transform="matrix(28.09868,0,0,-28.09868,356.39588,44.439004)"/>
<use xlink:href="#font_1_1" transform="matrix(28.09868,0,0,-28.09868,22.550759,124.38654)"/>
<use xlink:href="#font_1_1" transform="matrix(28.09868,0,0,-28.09868,36.6001,124.38654)"/>
<use xlink:href="#font_1_1" transform="matrix(28.09868,0,0,-28.09868,22.550803,204.33687)"/>
<use xlink:href="#font_1_2" transform="matrix(28.09868,0,0,-28.09868,38.005079,203.7187)"/>
<use xlink:href="#font_1_2" transform="matrix(28.09868,0,0,-28.09868,23.955779,283.66624)"/>
<use xlink:href="#font_1_2" transform="matrix(28.09868,0,0,-28.09868,38.00512,283.66624)"/>
<use xlink:href="#font_1_2" transform="matrix(28.09868,0,0,-28.09868,23.95582,363.61378)"/>
<use xlink:href="#font_1_1" transform="matrix(28.09868,0,0,-28.09868,36.600229,364.23194)"/>
<use xlink:href="#font_1_2" transform="matrix(28.09868,0,0,-28.09868,110.92888,203.71868)"/>
<use xlink:href="#font_1_2" transform="matrix(28.09868,0,0,-28.09868,190.87921,203.71868)"/>
<use xlink:href="#font_1_2" transform="matrix(28.09868,0,0,-28.09868,110.92888,283.6662)"/>
<use xlink:href="#font_1_2" transform="matrix(28.09868,0,0,-28.09868,190.87921,283.6662)"/>
<use xlink:href="#font_1_2" transform="matrix(28.09868,0,0,-28.09868,270.82676,283.6662)"/>
<use xlink:href="#font_1_2" transform="matrix(28.09868,0,0,-28.09868,350.7771,283.6662)"/>
<path transform="matrix(2.8204165,0,0,-2.8204165,75.47999,394.53395)" d="M 5.66928 76.38232 L 5.66928 37.00493 C 5.66928 35.35422 7.0074 34.0161 8.65811 34.0161 L 48.0355 34.0161 C 49.68622 34.0161 51.02434 35.35422 51.02434 37.00493 L 51.02434 76.38232 C 51.02434 78.03302 49.68622 79.37115 48.0355 79.37115 L 8.65811 79.37115 C 7.0074 79.37115 5.66928 78.03302 5.66928 76.38232 Z M 51.02434 34.0161 " fill="#ec008c" fill-opacity=".25"/>
<path transform="matrix(2.8204165,0,0,-2.8204165,75.47999,394.53395)" stroke-width=".3985" stroke-linecap="butt" stroke-miterlimit="10" stroke-linejoin="miter" fill="none" stroke="#000000" d="M 5.66928 76.38232 L 5.66928 37.00493 C 5.66928 35.35422 7.0074 34.0161 8.65811 34.0161 L 48.0355 34.0161 C 49.68622 34.0161 51.02434 35.35422 51.02434 37.00493 L 51.02434 76.38232 C 51.02434 78.03302 49.68622 79.37115 48.0355 79.37115 L 8.65811 79.37115 C 7.0074 79.37115 5.66928 78.03302 5.66928 76.38232 Z M 51.02434 34.0161 "/>
<path transform="matrix(2.8204165,0,0,-2.8204165,75.47999,394.53395)" d="M 90.70972 48.0355 L 90.70972 37.00493 C 90.70972 35.35422 92.04784 34.0161 93.69855 34.0161 L 104.72913 34.0161 C 106.37984 34.0161 107.71796 35.35422 107.71796 37.00493 L 107.71796 48.0355 C 107.71796 49.68622 106.37984 51.02434 104.72913 51.02434 L 93.69855 51.02434 C 92.04784 51.02434 90.70972 49.68622 90.70972 48.0355 Z M 107.71796 34.0161 " fill="#fff200" fill-opacity=".25"/>
<path transform="matrix(2.8204165,0,0,-2.8204165,75.47999,394.53395)" stroke-width=".3985" stroke-linecap="butt" stroke-miterlimit="10" stroke-linejoin="miter" fill="none" stroke="#000000" d="M 90.70972 48.0355 L 90.70972 37.00493 C 90.70972 35.35422 92.04784 34.0161 93.69855 34.0161 L 104.72913 34.0161 C 106.37984 34.0161 107.71796 35.35422 107.71796 37.00493 L 107.71796 48.0355 C 107.71796 49.68622 106.37984 51.02434 104.72913 51.02434 L 93.69855 51.02434 C 92.04784 51.02434 90.70972 49.68622 90.70972 48.0355 Z M 107.71796 34.0161 "/>
<symbol id="font_2_1">
<path d="M .24000001 .011000007 C .24000001 .016000003 .23700002 .019000009 .231 .026000008 C .102000009 .14400001 .063 .324 .063 .499 C .063 .65400007 .093 .84200009 .234 .9760001 C .238 .98 .24000001 .98300006 .24000001 .98800006 C .24000001 .99500009 .23500002 .9990001 .22800002 .9990001 C .21599999 .9990001 .12600002 .92700007 .072000008 .818 C .023999997 .722 0 .619 0 .5 C 0 .42800004 .009000003 .314 .064 .19600001 C .123 .073 .21599999 0 .22800002 0 C .23500002 0 .24000001 .004000008 .24000001 .011000007 Z "/>
</symbol>
<symbol id="font_2_6">
<path d="M .299 .083000008 C .304 .041 .333 .005000001 .37600003 .005000001 C .40100003 .005000001 .46400003 .020000002 .46400003 .1 L .46400003 .15600002 L .43600003 .15600002 L .43600003 .101 C .43600003 .09 .43600003 .040000004 .4 .040000004 C .364 .040000004 .364 .08800001 .364 .104 L .364 .279 C .364 .33600004 .364 .37000004 .319 .411 C .282 .44400005 .23400001 .45900003 .18400002 .45900003 C .10000001 .45900003 .030000005 .41700004 .030000005 .35300002 C .030000005 .32200004 .051000004 .305 .07700001 .305 C .104 .305 .12300001 .32500003 .12300001 .351 C .12300001 .39400003 .07900001 .39900003 .07800001 .39900003 C .105000007 .42500005 .15300001 .43400003 .18200001 .43400003 C .23300003 .43400003 .29 .39600004 .29 .30800004 L .29 .275 C .23600002 .27300004 .16100002 .268 .09400001 .23600002 C .022000004 .20100002 0 .14900002 0 .109000008 C 0 .027000003 .097 0 .16400002 0 C .24700003 0 .285 .055000005 .299 .083000008 M .29 .15200001 C .29 .055000005 .21500002 .025000003 .17100002 .025000003 C .12400001 .025000003 .08 .059 .08 .109000008 C .08 .17500001 .13700001 .24500002 .29 .25100003 L .29 .15200001 Z "/>
</symbol>
<symbol id="font_2_2">
<path d="M .24000001 .5 C .24000001 .582 .22800002 .69200006 .17600002 .80300006 C .11700001 .92600008 .024 .9990001 .011999998 .9990001 C .0020000004 .9990001 0 .99100008 0 .98800006 C 0 .98300006 .0020000004 .98 .009 .97300007 C .067 .92100009 .17700002 .785 .17700002 .5 C .17700002 .35700003 .15100001 .158 .006000001 .023000002 C .0040000008 .019999996 0 .016000003 0 .011000007 C 0 .008000001 .0020000004 0 .011999998 0 C .024 0 .11400001 .07200001 .16800002 .18100001 C .21600002 .277 .24000001 .38000003 .24000001 .5 Z "/>
</symbol>
<symbol id="font_2_8">
<path d="M .33 .404 C .30900003 .40000005 .289 .38600005 .289 .35700003 C .289 .33100004 .30900003 .31100003 .335 .31100003 C .361 .31100003 .382 .328 .382 .35900004 C .382 .42100004 .312 .45900003 .224 .45900003 C .09600001 .45900003 0 .35200004 0 .22700002 C 0 .098000008 .10400001 0 .222 0 C .361 0 .393 .12100001 .393 .13000001 C .393 .14200002 .382 .14200002 .379 .14200002 C .368 .14200002 .368 .14000002 .36200003 .123 C .33900003 .054 .283 .028 .232 .028 C .16800002 .028 .086 .080000009 .086 .22800002 C .086 .38400004 .16600001 .43100003 .22600001 .43100003 C .239 .43100003 .293 .42900003 .33 .404 Z "/>
</symbol>
<symbol id="font_2_a">
<path d="M .455 .22400002 C .455 .35500003 .351 .45900003 .228 .45900003 C .10100001 .45900003 0 .35200004 0 .22400002 C 0 .09900001 .104 0 .22700002 0 C .354 0 .455 .101 .455 .22400002 M .228 .028 C .17800002 .028 .136 .053000004 .113000009 .092 C .087000008 .134 .086 .18700002 .086 .23300003 C .086 .27 .086 .32700003 .111 .36800004 C .141 .41900004 .19100002 .43400003 .22700002 .43400003 C .284 .43400003 .325 .40200005 .345 .36800004 C .368 .32600004 .36900003 .275 .36900003 .23300003 C .36900003 .19600001 .36900003 .13800001 .344 .094000007 C .316 .048 .27 .028 .228 .028 Z "/>
</symbol>
<symbol id="font_2_9">
<path d="M .15100001 .259 C .15100001 .365 .22600001 .41700004 .289 .41700004 C .34800003 .41700004 .36100004 .36800004 .36100004 .30800004 L .36100004 .07700001 C .36100004 .031000002 .35000003 .031000002 .284 .031000002 L .284 0 C .33100004 .002 .35000003 .003 .39800004 .003 C .44600005 .003 .45900003 .002 .512 0 L .512 .031000002 C .46100004 .031000002 .43600003 .031000002 .43500004 .062000004 L .43500004 .254 C .43500004 .337 .43500004 .36600004 .40700004 .40100003 C .38400004 .42900003 .34600003 .44200004 .29600004 .44200004 C .20300001 .44200004 .16000001 .37300004 .14600002 .34500004 L .14500001 .34500004 L .14500001 .44200004 L 0 .43100003 L 0 .4 C .068 .4 .07700001 .393 .07700001 .344 L .07700001 .07700001 C .07700001 .031000002 .066 .031000002 0 .031000002 L 0 0 C .047000003 .002 .066 .003 .11400001 .003 C .16200002 .003 .17500001 .002 .22800002 0 L .22800002 .031000002 C .16200002 .031000002 .15100001 .031000002 .15100001 .07700001 L .15100001 .259 Z "/>
</symbol>
<use xlink:href="#font_2_1" transform="matrix(24.906666,0,0,-24.906666,163.52391,451.29066)"/>
<use xlink:href="#font_2_6" transform="matrix(24.906666,0,0,-24.906666,172.04198,445.36289)"/>
<use xlink:href="#font_2_2" transform="matrix(24.906666,0,0,-24.906666,185.21759,451.29066)"/>
<use xlink:href="#font_2_8" transform="matrix(24.906666,0,0,-24.906666,203.12552,445.36289)"/>
<use xlink:href="#font_2_a" transform="matrix(24.906666,0,0,-24.906666,214.3833,445.36289)"/>
<use xlink:href="#font_2_9" transform="matrix(24.906666,0,0,-24.906666,227.33477,445.0889)"/>
<symbol id="font_0_5">
<path d="M .27 .33800004 L .372 .33800004 C .44300003 .33800004 .45800004 .326 .45800004 .293 C .45800004 .28500004 .455 .264 .45100004 .24800001 C .44900004 .24200002 .448 .23700002 .448 .23400001 C .448 .23300001 .448 .22100002 .461 .22100002 C .47300003 .22100002 .474 .22800002 .47800002 .24300002 L .531 .453 C .535 .467 .535 .469 .535 .47300003 C .535 .48100005 .529 .48600004 .52099999 .48600004 C .51 .48600004 .509 .48000003 .504 .46100004 C .484 .38200004 .453 .36900003 .37300004 .36900003 L .27800004 .36900003 C .293 .43100003 .34 .62100008 .34500004 .633 C .351 .647 .358 .64900007 .39100004 .64900007 L .538 .64900007 C .663 .64900007 .691 .619 .691 .53800007 C .691 .507 .686 .47700004 .686 .47000004 C .686 .462 .691 .455 .7 .455 C .712 .455 .713 .462 .71500006 .48000003 L .736 .666 C .736 .68 .726 .68 .707 .68 L .19200002 .68 C .17300001 .68 .16200002 .68 .16200002 .66200008 C .16200002 .64900007 .172 .64900007 .19300002 .64900007 C .19700001 .64900007 .215 .64900007 .231 .647 C .25300003 .64400008 .254 .64000007 .254 .63100007 C .254 .628 .254 .62600007 .24900002 .60800006 L .11600001 .076000008 C .10700001 .040000004 .105000007 .031000002 .029999998 .031000002 C .011 .031000002 0 .031000002 0 .013 C 0 0 .009999998 0 .028 0 L .556 0 C .574 0 .576 0 .579 .003 C .582 .0050000005 .583 .006 .589 .019000002 C .601 .046000005 .686 .23600002 .686 .245 C .686 .25300003 .68 .25800003 .672 .25800003 C .664 .25800003 .663 .257 .652 .23400001 C .59 .094000007 .549 .031000002 .38300003 .031000002 L .23000002 .031000002 C .21600002 .031000002 .21400002 .031000002 .21000001 .032 C .20000002 .033 .19700001 .034 .19700001 .041 C .19700001 .044000005 .19700001 .046000005 .202 .064 L .27 .33800004 Z "/>
</symbol>
<use xlink:href="#font_0_5" transform="matrix(24.906666,0,0,-24.906666,250.27645,445.0889)"/>
<symbol id="font_2_5">
<path d="M .651 .20400003 C .6650001 .20400003 .6840001 .20400003 .6840001 .22500003 C .6840001 .24700001 .66200008 .24700001 .6470001 .24700001 L .037 .24700001 C .022 .24700001 0 .24700001 0 .22500003 C 0 .20400003 .020000004 .20400003 .033 .20400003 L .651 .20400003 M .6470001 0 C .66200008 0 .6840001 0 .6840001 .022 C .6840001 .042999999 .6650001 .042999999 .651 .042999999 L .033 .042999999 C .020000004 .042999999 0 .042999999 0 .022 C 0 0 .022 0 .037 0 L .6470001 0 Z "/>
</symbol>
<symbol id="font_2_3">
<path d="M .43300004 .34200005 C .43300004 .40900005 .43000005 .49500004 .39500005 .57000008 C .35100005 .66400006 .27500005 .688 .217 .688 C .157 .688 .081 .66400006 .037000006 .568 C .004999999 .49900005 0 .41800005 0 .34200005 C 0 .27700005 .0020000004 .18 .044999999 .101 C .09199999 .016000003 .17 0 .216 0 C .28100003 0 .35500003 .028 .397 .120000008 C .42700003 .187 .43300004 .26200003 .43300004 .34200005 M .217 .025000003 C .187 .025000003 .114999998 .039000006 .096 .15200001 C .085999999 .21100001 .085999999 .29700003 .085999999 .35400004 C .085999999 .42200003 .085999999 .50100007 .098000008 .55600008 C .118 .64500007 .18200001 .66300007 .216 .66300007 C .254 .66300007 .31700004 .64300009 .33600004 .55 C .34700004 .49500004 .34700004 .41700004 .34700004 .35400004 C .34700004 .29200004 .34700004 .208 .337 .149 C .316 .035000005 .242 .025000003 .217 .025000003 Z "/>
</symbol>
<use xlink:href="#font_2_5" transform="matrix(24.906666,0,0,-24.906666,277.9669,441.92576)"/>
<use xlink:href="#font_2_3" transform="matrix(24.906666,0,0,-24.906666,304.54234,445.63685)"/>
<path transform="matrix(2.8204165,0,0,-2.8204165,562.07998,394.53395)" stroke-width=".09962" stroke-linecap="butt" stroke-miterlimit="10" stroke-linejoin="miter" fill="none" stroke="#000000" d="M 0 0 L 113.38724 0 M 0 28.3468 L 113.38724 28.3468 M 0 56.69362 L 113.38724 56.69362 M 0 85.04042 L 113.38724 85.04042 M 0 113.37727 L 113.38724 113.37727 M 0 0 L 0 113.38724 M 28.3468 0 L 28.3468 113.38724 M 56.69362 0 L 56.69362 113.38724 M 85.04042 0 L 85.04042 113.38724 M 113.37727 0 L 113.37727 113.38724 M 113.38724 113.38724 "/>
<path transform="matrix(2.8204165,0,0,-2.8204165,562.07998,394.53395)" stroke-width=".09962" stroke-linecap="butt" stroke-miterlimit="10" stroke-linejoin="miter" fill="none" stroke="#000000" d="M 0 113.38724 L -20.04422 133.43148 "/>
<use xlink:href="#font_0_1" transform="matrix(17.881838,17.881838,17.881838,-17.881838,526.90817,26.124329)"/>
<use xlink:href="#font_0_2" transform="matrix(17.881838,17.881838,17.881838,-17.881838,540.8739,40.090044)"/>
<use xlink:href="#font_0_3" transform="matrix(17.881838,17.881838,17.881838,-17.881838,500.3632,51.69211)"/>
<use xlink:href="#font_0_4" transform="matrix(17.881838,17.881838,17.881838,-17.881838,515.0442,65.58631)"/>
<use xlink:href="#font_1_1" transform="matrix(28.09868,0,0,-28.09868,589.101,44.439004)"/>
<use xlink:href="#font_1_1" transform="matrix(28.09868,0,0,-28.09868,603.1503,44.439004)"/>
<use xlink:href="#font_1_1" transform="matrix(28.09868,0,0,-28.09868,669.05136,44.439004)"/>
<use xlink:href="#font_1_2" transform="matrix(28.09868,0,0,-28.09868,684.5056,43.82083)"/>
<use xlink:href="#font_1_2" transform="matrix(28.09868,0,0,-28.09868,750.40377,43.82083)"/>
<use xlink:href="#font_1_2" transform="matrix(28.09868,0,0,-28.09868,764.45309,43.82083)"/>
<use xlink:href="#font_1_2" transform="matrix(28.09868,0,0,-28.09868,830.3513,43.82083)"/>
<use xlink:href="#font_1_1" transform="matrix(28.09868,0,0,-28.09868,842.99569,44.439004)"/>
<use xlink:href="#font_1_1" transform="matrix(28.09868,0,0,-28.09868,509.15345,124.38654)"/>
<use xlink:href="#font_1_1" transform="matrix(28.09868,0,0,-28.09868,523.20278,124.38654)"/>
<use xlink:href="#font_1_1" transform="matrix(28.09868,0,0,-28.09868,509.15345,204.33687)"/>
<use xlink:href="#font_1_2" transform="matrix(28.09868,0,0,-28.09868,524.6077,203.7187)"/>
<use xlink:href="#font_1_2" transform="matrix(28.09868,0,0,-28.09868,510.55839,283.66624)"/>
<use xlink:href="#font_1_2" transform="matrix(28.09868,0,0,-28.09868,524.6077,283.66624)"/>
<use xlink:href="#font_1_2" transform="matrix(28.09868,0,0,-28.09868,510.55839,363.61378)"/>
<use xlink:href="#font_1_1" transform="matrix(28.09868,0,0,-28.09868,523.20278,364.23194)"/>
<use xlink:href="#font_1_2" transform="matrix(28.09868,0,0,-28.09868,597.5316,203.71868)"/>
<use xlink:href="#font_1_2" transform="matrix(28.09868,0,0,-28.09868,677.4792,203.71868)"/>
<use xlink:href="#font_1_2" transform="matrix(28.09868,0,0,-28.09868,597.5316,283.6662)"/>
<use xlink:href="#font_1_2" transform="matrix(28.09868,0,0,-28.09868,677.4792,283.6662)"/>
<use xlink:href="#font_1_2" transform="matrix(28.09868,0,0,-28.09868,757.42947,283.6662)"/>
<use xlink:href="#font_1_2" transform="matrix(28.09868,0,0,-28.09868,837.37716,283.6662)"/>
<path transform="matrix(2.8204165,0,0,-2.8204165,562.07998,394.53395)" d="M 5.66928 76.38232 L 5.66928 37.00493 C 5.66928 35.35422 7.0074 34.0161 8.65811 34.0161 L 48.0355 34.0161 C 49.68622 34.0161 51.02434 35.35422 51.02434 37.00493 L 51.02434 76.38232 C 51.02434 78.03302 49.68622 79.37115 48.0355 79.37115 L 8.65811 79.37115 C 7.0074 79.37115 5.66928 78.03302 5.66928 76.38232 Z M 51.02434 34.0161 " fill="#ec008c" fill-opacity=".25"/>
<path transform="matrix(2.8204165,0,0,-2.8204165,562.07998,394.53395)" stroke-width=".3985" stroke-linecap="butt" stroke-miterlimit="10" stroke-linejoin="miter" fill="none" stroke="#000000" d="M 5.66928 76.38232 L 5.66928 37.00493 C 5.66928 35.35422 7.0074 34.0161 8.65811 34.0161 L 48.0355 34.0161 C 49.68622 34.0161 51.02434 35.35422 51.02434 37.00493 L 51.02434 76.38232 C 51.02434 78.03302 49.68622 79.37115 48.0355 79.37115 L 8.65811 79.37115 C 7.0074 79.37115 5.66928 78.03302 5.66928 76.38232 Z M 51.02434 34.0161 "/>
<path transform="matrix(2.8204165,0,0,-2.8204165,562.07998,394.53395)" d="M 90.70972 48.0355 L 90.70972 37.00493 C 90.70972 35.35422 92.04784 34.0161 93.69855 34.0161 L 104.72913 34.0161 C 106.37984 34.0161 107.71796 35.35422 107.71796 37.00493 L 107.71796 48.0355 C 107.71796 49.68622 106.37984 51.02434 104.72913 51.02434 L 93.69855 51.02434 C 92.04784 51.02434 90.70972 49.68622 90.70972 48.0355 Z M 107.71796 34.0161 " fill="#fff200" fill-opacity=".25"/>
<path transform="matrix(2.8204165,0,0,-2.8204165,562.07998,394.53395)" stroke-width=".3985" stroke-linecap="butt" stroke-miterlimit="10" stroke-linejoin="miter" fill="none" stroke="#000000" d="M 90.70972 48.0355 L 90.70972 37.00493 C 90.70972 35.35422 92.04784 34.0161 93.69855 34.0161 L 104.72913 34.0161 C 106.37984 34.0161 107.71796 35.35422 107.71796 37.00493 L 107.71796 48.0355 C 107.71796 49.68622 106.37984 51.02434 104.72913 51.02434 L 93.69855 51.02434 C 92.04784 51.02434 90.70972 49.68622 90.70972 48.0355 Z M 107.71796 34.0161 "/>
<symbol id="font_2_7">
<path d="M .15100001 .33 C .15100001 .34900005 .15100001 .35000003 .162 .36600004 C .19600001 .41200004 .245 .42800004 .28300003 .42800004 C .326 .42800004 .36600004 .404 .39200003 .36200003 C .418 .31900005 .42000003 .26000003 .42000003 .22800002 C .42000003 .18100001 .41400004 .128 .388 .08800001 C .36600004 .056 .32500003 .025000003 .272 .025000003 C .227 .025000003 .18900001 .049000004 .165 .086 C .15100001 .107 .15100001 .108 .15100001 .127 L .15100001 .33 M .142 .072000008 C .17300001 .028 .22300002 0 .277 0 C .39600004 0 .50600007 .096 .50600007 .22700002 C .50600007 .35200004 .407 .45300005 .287 .45300005 C .21900001 .45300005 .172 .418 .148 .39100004 L .148 .705 L 0 .694 L 0 .663 C .068 .663 .07700001 .656 .07700001 .607 L .07700001 .011000001 L .105000007 .011000001 L .142 .072000008 Z "/>
</symbol>
<use xlink:href="#font_2_1" transform="matrix(24.906666,0,0,-24.906666,649.4155,451.29066)"/>
<use xlink:href="#font_2_7" transform="matrix(24.906666,0,0,-24.906666,657.60989,445.36289)"/>
<use xlink:href="#font_2_2" transform="matrix(24.906666,0,0,-24.906666,672.52896,451.29066)"/>
<use xlink:href="#font_2_8" transform="matrix(24.906666,0,0,-24.906666,690.4368,445.36289)"/>
<use xlink:href="#font_2_a" transform="matrix(24.906666,0,0,-24.906666,701.69467,445.36289)"/>
<use xlink:href="#font_2_9" transform="matrix(24.906666,0,0,-24.906666,714.6211,445.0889)"/>
<use xlink:href="#font_0_5" transform="matrix(24.906666,0,0,-24.906666,737.59036,445.0889)"/>
<symbol id="font_2_4">
<path d="M .21100003 .63900008 C .21100003 .66400006 .21000001 .666 .18500003 .666 C .123 .60200008 .031000004 .60200008 0 .60200008 L 0 .57100006 C .019000002 .57100006 .080000009 .57100006 .134 .597 L .134 .080000009 C .134 .043 .13100001 .031000002 .03800001 .031000002 L .0060000049 .031000002 L .0060000049 0 C .042000005 .003 .13100001 .003 .17200002 .003 C .21300003 .003 .30300004 .003 .33900003 0 L .33900003 .031000002 L .307 .031000002 C .21400002 .031000002 .21100003 .043 .21100003 .080000009 L .21100003 .63900008 Z "/>
</symbol>
<use xlink:href="#font_2_5" transform="matrix(24.906666,0,0,-24.906666,765.28079,441.92576)"/>
<use xlink:href="#font_2_4" transform="matrix(24.906666,0,0,-24.906666,793.1762,445.0889)"/>
</g>
</svg>
