<?xml version="1.0" encoding="UTF-8" standalone="no"?>
<!DOCTYPE svg PUBLIC "-//W3C//DTD SVG 1.1//EN" "http://www.w3.org/Graphics/SVG/1.1/DTD/svg11.dtd">
<svg xmlns="http://www.w3.org/2000/svg" xmlns:xlink="http://www.w3.org/1999/xlink" version="1.1" width="963.9778pt" height="445.34446pt" viewBox="0 0 963.9778 445.34446">
<g enable-background="new">
<path transform="matrix(2.76625,0,0,-2.76625,74.03038,386.95756)" stroke-width=".09962" stroke-linecap="butt" stroke-miterlimit="10" stroke-linejoin="miter" fill="none" stroke="#FFFFFF" d="M 0 0 L 113.38724 0 M 0 28.3468 L 113.38724 28.3468 M 0 56.69362 L 113.38724 56.69362 M 0 85.04042 L 113.38724 85.04042 M 0 113.37727 L 113.38724 113.37727 M 0 0 L 0 113.38724 M 28.3468 0 L 28.3468 113.38724 M 56.69362 0 L 56.69362 113.38724 M 85.04042 0 L 85.04042 113.38724 M 113.37727 0 L 113.37727 113.38724 M 113.38724 113.38724 "/>
<path transform="matrix(2.76625,0,0,-2.76625,74.03038,386.95756)" stroke-width=".09962" stroke-linecap="butt" stroke-miterlimit="10" stroke-linejoin="miter" fill="none" stroke="#FFFFFF" d="M 0 113.38724 L -20.04422 133.43148 "/>
<symbol id="font_0_1">
<path d="M .14500001 .117000009 C .096 .037 .052 .034 .012000002 .031000002 C .0050000029 .030000002 0 .022000002 0 .013 C 0 .007 .0040000008 0 .014000002 0 C .033 0 .080000009 .003 .09900001 .003 C .12100001 .003 .17500001 0 .19700001 0 C .20300001 0 .21600002 0 .21600002 .018000002 C .21600002 .030000002 .20400001 .031000002 .201 .031000002 C .19200002 .032 .15400002 .034 .15400002 .064 C .15400002 .078 .165 .097 .16800002 .102000009 L .24700001 .231 L .508 .231 C .51100006 .208 .514 .17400001 .517 .149 C .521 .11000001 .527 .066 .527 .063 C .527 .048 .513 .031000002 .455 .031000002 C .44500003 .031000002 .432 .031000002 .432 .013 C .432 .002 .44000004 0 .44700004 0 C .46600003 0 .49 .002 .51000007 .002 C .53000006 .002 .554 .003 .57000008 .003 C .60300007 .003 .605 .003 .629 .002 C .64500007 .001 .66800007 0 .684 0 C .69000008 0 .703 0 .703 .018000002 C .703 .031000002 .69200006 .031000002 .68 .031000002 C .62 .031000002 .619 .038000004 .61600008 .067 L .546 .689 C .544 .711 .54300007 .716 .526 .716 C .512 .716 .50600007 .70900008 .49800004 .69600006 L .14500001 .117000009 M .266 .26200003 L .468 .592 L .50500008 .26200003 L .266 .26200003 Z "/>
</symbol>
<symbol id="font_0_2">
<path d="M .116 .076000008 C .10700001 .040000004 .105000007 .031000002 .030000005 .031000002 C .011 .031000002 0 .031000002 0 .013 C 0 0 .010000002 0 .028 0 L .39200003 0 C .554 0 .67300006 .11800001 .67300006 .215 C .67300006 .286 .614 .34600003 .51500007 .35700003 C .62900009 .379 .7260001 .455 .7260001 .544 C .7260001 .62200006 .65400007 .683 .535 .683 L .193 .683 C .17500001 .683 .163 .683 .163 .665 C .163 .652 .172 .652 .193 .652 C .19700001 .652 .21500002 .652 .23100002 .65000006 C .24800001 .648 .25500003 .646 .25500003 .63500007 C .25500003 .63000008 .25400005 .62600007 .25100003 .615 L .116 .076000008 M .272 .36800004 L .33300004 .61300006 C .34200005 .64900007 .34400005 .652 .38600005 .652 L .521 .652 C .62500008 .652 .63400009 .573 .63400009 .54800006 C .63400009 .45900003 .541 .36800004 .42800004 .36800004 L .272 .36800004 M .22400002 .031000002 C .21 .031000002 .20800002 .031000002 .20400001 .032 C .194 .033 .191 .034 .191 .041 C .191 .044000005 .191 .046000005 .19600001 .064 L .26500003 .34300003 L .453 .34300003 C .51500007 .34300003 .578 .316 .578 .22500001 C .578 .126 .48700006 .031000002 .36700005 .031000002 L .22400002 .031000002 Z "/>
</symbol>
<use xlink:href="#font_0_1" transform="matrix(17.538416,17.538416,17.538416,-17.538416,39.534086,25.623318)"/>
<use xlink:href="#font_0_2" transform="matrix(17.538416,17.538416,17.538416,-17.538416,53.231595,39.320829)"/>
<symbol id="font_0_3">
<path d="M .72300007 .70000007 C .726 .7120001 .726 .71400007 .726 .716 C .726 .71700009 .725 .72700008 .71400007 .72700008 C .70800009 .72700008 .70500007 .72400006 .698 .716 L .637 .64900007 C .633 .64400008 .629 .64000007 .628 .64000007 C .62700006 .64000007 .62600007 .64100006 .62 .64800009 C .605 .66800007 .56 .72700008 .45600004 .72700008 C .22700003 .72700008 0 .505 0 .27700005 C 0 .11400001 .119 0 .28000004 0 C .38400004 0 .46600003 .054000006 .50500008 .089 C .596 .17 .61300006 .25800003 .61300006 .26200003 C .61300006 .26600004 .61100009 .27300004 .59900006 .27300004 C .58800008 .27300004 .586 .26700003 .58500006 .263 C .536 .102000009 .39300005 .031000004 .293 .031000004 C .19600001 .031000004 .09300001 .09 .09300001 .24100001 C .09300001 .286 .10800001 .44400005 .20900002 .56700006 C .26900003 .63900008 .367 .69600006 .463 .69600006 C .574 .69600006 .633 .61100009 .633 .50100007 C .633 .46700005 .63000008 .46000005 .63000008 .45200003 C .63000008 .44100005 .642 .44100005 .64500007 .44100005 C .65800008 .44100005 .65800008 .44300006 .66300007 .46200005 L .72300007 .70000007 Z "/>
</symbol>
<symbol id="font_0_4">
<path d="M .11600001 .076000008 C .10700001 .040000004 .105000007 .031000002 .030000002 .031000002 C .011 .031000002 0 .031000002 0 .013 C 0 0 .010000002 0 .028000005 0 L .365 0 C .579 0 .778 .21200001 .778 .42800004 C .778 .565 .69200006 .683 .536 .683 L .193 .683 C .17500001 .683 .163 .683 .163 .665 C .163 .652 .172 .652 .193 .652 C .19700001 .652 .21500002 .652 .23100002 .65000006 C .24800001 .648 .255 .646 .255 .63500007 C .255 .63000008 .254 .62600007 .251 .615 L .11600001 .076000008 M .33600004 .61300006 C .34500004 .64900007 .347 .652 .389 .652 L .50200006 .652 C .606 .652 .689 .59400007 .689 .46500004 C .689 .407 .66400006 .24700001 .586 .148 C .54 .091000009 .45700003 .031000002 .347 .031000002 L .22700002 .031000002 C .21300002 .031000002 .21100001 .031000002 .207 .032 C .19700001 .033 .194 .034 .194 .041 C .194 .044000005 .194 .046000005 .19900002 .064 L .33600004 .61300006 Z "/>
</symbol>
<use xlink:href="#font_0_3" transform="matrix(17.538416,17.538416,17.538416,-17.538416,13.4989399,50.700044)"/>
<use xlink:href="#font_0_4" transform="matrix(17.538416,17.538416,17.538416,-17.538416,27.897963,64.32738)"/>
<symbol id="font_1_1">
<path d="M .421 .34200005 C .421 .42200003 .416 .50200006 .381 .57600006 C .335 .67200008 .25300003 .688 .211 .688 C .15100001 .688 .07800001 .66200008 .037000006 .56900009 C .0050000029 .5 0 .42200003 0 .34200005 C 0 .26700003 .0040000008 .177 .045000007 .101 C .088 .020000002 .161 0 .21000001 0 C .264 0 .34 .021000002 .384 .116000007 C .416 .185 .421 .263 .421 .34200005 M .21000001 .022000002 C .171 .022000002 .112 .047000003 .094 .143 C .083000008 .20300001 .083000008 .29500003 .083000008 .35400004 C .083000008 .41800005 .083000008 .48400004 .091000009 .53800007 C .11 .65700009 .185 .66600009 .21000001 .66600009 C .243 .66600009 .30900003 .64800009 .328 .549 C .338 .49300004 .338 .41700004 .338 .35400004 C .338 .279 .338 .21100001 .32700003 .147 C .312 .052 .255 .022000002 .21000001 .022000002 Z "/>
</symbol>
<use xlink:href="#font_1_1" transform="matrix(27.55904,0,0,-27.55904,100.53256,43.58619)"/>
<use xlink:href="#font_1_1" transform="matrix(27.55904,0,0,-27.55904,114.31208,43.58619)"/>
<symbol id="font_1_2">
<path d="M .205 .64000007 C .205 .66400006 .205 .666 .18200003 .666 C .120000008 .60200008 .032000007 .60200008 0 .60200008 L 0 .57100006 C .020000004 .57100006 .07900001 .57100006 .13100001 .597 L .13100001 .079 C .13100001 .043 .128 .031000002 .038000004 .031000002 L .0060000049 .031000002 L .0060000049 0 C .04100001 .003 .128 .003 .168 .003 C .20800002 .003 .29500003 .003 .33000005 0 L .33000005 .031000002 L .29800005 .031000002 C .20800002 .031000002 .205 .042000005 .205 .079 L .205 .64000007 Z "/>
</symbol>
<use xlink:href="#font_1_1" transform="matrix(27.55904,0,0,-27.55904,178.94467,43.58619)"/>
<use xlink:href="#font_1_2" transform="matrix(27.55904,0,0,-27.55904,194.10216,42.97989)"/>
<use xlink:href="#font_1_2" transform="matrix(27.55904,0,0,-27.55904,258.73753,42.97989)"/>
<use xlink:href="#font_1_2" transform="matrix(27.55904,0,0,-27.55904,272.51704,42.97989)"/>
<use xlink:href="#font_1_2" transform="matrix(27.55904,0,0,-27.55904,337.14967,42.97989)"/>
<use xlink:href="#font_1_1" transform="matrix(27.55904,0,0,-27.55904,349.5512,43.58619)"/>
<use xlink:href="#font_1_1" transform="matrix(27.55904,0,0,-27.55904,22.117672,121.99836)"/>
<use xlink:href="#font_1_1" transform="matrix(27.55904,0,0,-27.55904,35.897195,121.99836)"/>
<use xlink:href="#font_1_1" transform="matrix(27.55904,0,0,-27.55904,22.117672,200.41324)"/>
<use xlink:href="#font_1_2" transform="matrix(27.55904,0,0,-27.55904,37.275148,199.80695)"/>
<use xlink:href="#font_1_2" transform="matrix(27.55904,0,0,-27.55904,23.495625,278.219)"/>
<use xlink:href="#font_1_2" transform="matrix(27.55904,0,0,-27.55904,37.275148,278.219)"/>
<use xlink:href="#font_1_2" transform="matrix(27.55904,0,0,-27.55904,23.495625,356.6312)"/>
<use xlink:href="#font_1_1" transform="matrix(27.55904,0,0,-27.55904,35.897195,357.2375)"/>
<use xlink:href="#font_1_2" transform="matrix(27.55904,0,0,-27.55904,108.79846,199.80695)"/>
<use xlink:href="#font_1_2" transform="matrix(27.55904,0,0,-27.55904,187.21337,199.80695)"/>
<use xlink:href="#font_1_2" transform="matrix(27.55904,0,0,-27.55904,108.79846,278.219)"/>
<use xlink:href="#font_1_2" transform="matrix(27.55904,0,0,-27.55904,187.21337,278.219)"/>
<use xlink:href="#font_1_2" transform="matrix(27.55904,0,0,-27.55904,265.6255,278.219)"/>
<path transform="matrix(2.76625,0,0,-2.76625,74.03038,386.95756)" d="M 5.66928 76.38232 L 5.66928 37.00493 C 5.66928 35.35422 7.0074 34.0161 8.65811 34.0161 L 48.0355 34.0161 C 49.68622 34.0161 51.02434 35.35422 51.02434 37.00493 L 51.02434 76.38232 C 51.02434 78.03302 49.68622 79.37115 48.0355 79.37115 L 8.65811 79.37115 C 7.0074 79.37115 5.66928 78.03302 5.66928 76.38232 Z M 51.02434 34.0161 " fill="#0000ff" fill-opacity=".25"/>
<path transform="matrix(2.76625,0,0,-2.76625,74.03038,386.95756)" stroke-width=".3985" stroke-linecap="butt" stroke-miterlimit="10" stroke-linejoin="miter" fill="none" stroke="#FFFFFF" d="M 5.66928 76.38232 L 5.66928 37.00493 C 5.66928 35.35422 7.0074 34.0161 8.65811 34.0161 L 48.0355 34.0161 C 49.68622 34.0161 51.02434 35.35422 51.02434 37.00493 L 51.02434 76.38232 C 51.02434 78.03302 49.68622 79.37115 48.0355 79.37115 L 8.65811 79.37115 C 7.0074 79.37115 5.66928 78.03302 5.66928 76.38232 Z M 51.02434 34.0161 "/>
<path transform="matrix(2.76625,0,0,-2.76625,74.03038,386.95756)" d="M 62.3629 48.0355 L 62.3629 37.00493 C 62.3629 35.35422 63.70102 34.0161 65.35173 34.0161 L 76.38232 34.0161 C 78.03302 34.0161 79.37115 35.35422 79.37115 37.00493 L 79.37115 48.0355 C 79.37115 49.68622 78.03302 51.02434 76.38232 51.02434 L 65.35173 51.02434 C 63.70102 51.02434 62.3629 49.68622 62.3629 48.0355 Z M 79.37115 34.0161 " fill="#ec008c" fill-opacity=".25"/>
<path transform="matrix(2.76625,0,0,-2.76625,74.03038,386.95756)" stroke-width=".3985" stroke-linecap="butt" stroke-miterlimit="10" stroke-linejoin="miter" fill="none" stroke="#FFFFFF" d="M 62.3629 48.0355 L 62.3629 37.00493 C 62.3629 35.35422 63.70102 34.0161 65.35173 34.0161 L 76.38232 34.0161 C 78.03302 34.0161 79.37115 35.35422 79.37115 37.00493 L 79.37115 48.0355 C 79.37115 49.68622 78.03302 51.02434 76.38232 51.02434 L 65.35173 51.02434 C 63.70102 51.02434 62.3629 49.68622 62.3629 48.0355 Z M 79.37115 34.0161 "/>
<symbol id="font_2_2">
<path d="M .24000001 .011000007 C .24000001 .016000003 .23700002 .019000009 .231 .026000008 C .102000009 .14400001 .063 .324 .063 .499 C .063 .65400007 .093 .84200009 .234 .9760001 C .238 .98 .24000001 .98300006 .24000001 .98800006 C .24000001 .99500009 .23500002 .9990001 .22800002 .9990001 C .21599999 .9990001 .12600002 .92700007 .072000008 .818 C .023999997 .722 0 .619 0 .5 C 0 .42800004 .009000003 .314 .064 .19600001 C .123 .073 .21599999 0 .22800002 0 C .23500002 0 .24000001 .004000008 .24000001 .011000007 Z "/>
</symbol>
<symbol id="font_2_6">
<path d="M .299 .083000008 C .304 .041 .333 .005000001 .37600003 .005000001 C .40100003 .005000001 .46400003 .020000002 .46400003 .1 L .46400003 .15600002 L .43600003 .15600002 L .43600003 .101 C .43600003 .09 .43600003 .040000004 .4 .040000004 C .364 .040000004 .364 .08800001 .364 .104 L .364 .279 C .364 .33600004 .364 .37000004 .319 .411 C .282 .44400005 .23400001 .45900003 .18400002 .45900003 C .10000001 .45900003 .030000005 .41700004 .030000005 .35300002 C .030000005 .32200004 .051000004 .305 .07700001 .305 C .104 .305 .12300001 .32500003 .12300001 .351 C .12300001 .39400003 .07900001 .39900003 .07800001 .39900003 C .105000007 .42500005 .15300001 .43400003 .18200001 .43400003 C .23300003 .43400003 .29 .39600004 .29 .30800004 L .29 .275 C .23600002 .27300004 .16100002 .268 .09400001 .23600002 C .022000004 .20100002 0 .14900002 0 .109000008 C 0 .027000003 .097 0 .16400002 0 C .24700003 0 .285 .055000005 .299 .083000008 M .29 .15200001 C .29 .055000005 .21500002 .025000003 .17100002 .025000003 C .12400001 .025000003 .08 .059 .08 .109000008 C .08 .17500001 .13700001 .24500002 .29 .25100003 L .29 .15200001 Z "/>
</symbol>
<symbol id="font_2_3">
<path d="M .24000001 .5 C .24000001 .582 .22800002 .69200006 .17600002 .80300006 C .11700001 .92600008 .024 .9990001 .011999998 .9990001 C .0020000004 .9990001 0 .99100008 0 .98800006 C 0 .98300006 .0020000004 .98 .009 .97300007 C .067 .92100009 .17700002 .785 .17700002 .5 C .17700002 .35700003 .15100001 .158 .006000001 .023000002 C .0040000008 .019999996 0 .016000003 0 .011000007 C 0 .008000001 .0020000004 0 .011999998 0 C .024 0 .11400001 .07200001 .16800002 .18100001 C .21600002 .277 .24000001 .38000003 .24000001 .5 Z "/>
</symbol>
<use xlink:href="#font_2_2" transform="matrix(24.906666,0,0,-24.906666,118.96557,442.41288)"/>
<use xlink:href="#font_2_6" transform="matrix(24.906666,0,0,-24.906666,127.48364,436.4851)"/>
<use xlink:href="#font_2_3" transform="matrix(24.906666,0,0,-24.906666,140.65927,442.41288)"/>
<symbol id="font_0_5">
<path d="M .32000003 .605 L .41000004 .605 C .43000005 .605 .44000004 .605 .44000004 .623 C .44000004 .63600006 .43000005 .63600006 .41100005 .63600006 L .32600004 .63600006 C .33700005 .69600006 .35100005 .778 .36400003 .832 C .37300004 .87100008 .39700005 .885 .41700004 .885 C .42300005 .885 .446 .883 .46300004 .87100008 C .44300003 .8670001 .41400004 .8490001 .41400004 .816 C .41400004 .791 .43300004 .7800001 .45200006 .7800001 C .47900007 .7800001 .507 .80200007 .507 .84000006 C .507 .885 .46300004 .9100001 .41600005 .9100001 C .37100003 .9100001 .32600004 .878 .30500005 .837 C .28300003 .794 .27600003 .755 .25500003 .63600006 L .18300002 .63600006 C .164 .63600006 .15200001 .63600006 .15200001 .61800006 C .15200001 .605 .163 .605 .18100001 .605 L .249 .605 C .221 .46000005 .186 .26000003 .164 .15600002 C .15200001 .10100001 .136 .025000006 .088 .025000006 C .073 .025000006 .053000008 .031000004 .043 .039000006 C .068 .043000014 .092999998 .06400001 .092999998 .094000007 C .092999998 .11900001 .074 .13000001 .055000005 .13000001 C .028 .13000001 0 .10800001 0 .07000001 C 0 .024000004 .046 0 .088 0 C .19000001 0 .237 .16600001 .25300003 .252 L .32000003 .605 Z "/>
</symbol>
<use xlink:href="#font_0_5" transform="matrix(24.906666,0,0,-24.906666,159.03662,441.317)"/>
<symbol id="font_2_5">
<path d="M .651 .20400003 C .6650001 .20400003 .6840001 .20400003 .6840001 .22500003 C .6840001 .24700001 .66200008 .24700001 .6470001 .24700001 L .037 .24700001 C .022 .24700001 0 .24700001 0 .22500003 C 0 .20400003 .020000004 .20400003 .033 .20400003 L .651 .20400003 M .6470001 0 C .66200008 0 .6840001 0 .6840001 .022 C .6840001 .042999999 .6650001 .042999999 .651 .042999999 L .033 .042999999 C .020000004 .042999999 0 .042999999 0 .022 C 0 0 .022 0 .037 0 L .6470001 0 Z "/>
</symbol>
<use xlink:href="#font_2_5" transform="matrix(24.906666,0,0,-24.906666,181.35579,433.04798)"/>
<symbol id="font_2_1">
<path d="M .37100003 0 L .37100003 .035000028 L 0 .035000028 L 0 0 L .37100003 0 Z "/>
</symbol>
<use xlink:href="#font_2_1" transform="matrix(24.906666,0,0,-24.906666,215.47949,416.01878)" fill="#0000ff"/>
<use xlink:href="#font_0_1" transform="matrix(24.906666,0,0,-24.906666,207.8771,436.21113)" fill="#0000ff"/>
<use xlink:href="#font_0_4" transform="matrix(24.906666,0,0,-24.906666,227.2794,436.21113)" fill="#0000ff"/>
<symbol id="font_2_4">
<path d="M .64900007 .32100005 C .66300007 .32100005 .6840001 .32100005 .6840001 .342 C .6840001 .36400003 .6650001 .36400003 .64900007 .36400003 L .36400003 .36400003 L .36400003 .65000006 C .36400003 .666 .36400003 .68500009 .342 .68500009 C .321 .68500009 .321 .66400006 .321 .65000006 L .321 .36400003 L .035000005 .36400003 C .020999998 .36400003 0 .36400003 0 .34300003 C 0 .32100005 .019000002 .32100005 .035000005 .32100005 L .321 .32100005 L .321 .035000005 C .321 .019000002 .321 0 .343 0 C .36400003 0 .36400003 .021000006 .36400003 .035000005 L .36400003 .32100005 L .64900007 .32100005 Z "/>
</symbol>
<use xlink:href="#font_2_4" transform="matrix(24.906666,0,0,-24.906666,255.0808,438.50254)"/>
<use xlink:href="#font_0_1" transform="matrix(24.906666,0,0,-24.906666,280.17988,436.21113)" fill="#ec008c"/>
<use xlink:href="#font_0_2" transform="matrix(24.906666,0,0,-24.906666,299.632,436.21113)" fill="#ec008c"/>
<use xlink:href="#font_0_3" transform="matrix(24.906666,0,0,-24.906666,320.35435,436.75907)" fill="#ec008c"/>
<use xlink:href="#font_0_4" transform="matrix(24.906666,0,0,-24.906666,340.25474,436.21113)" fill="#ec008c"/>
<path transform="matrix(2.76625,0,0,-2.76625,560.6304,386.95756)" stroke-width=".09962" stroke-linecap="butt" stroke-miterlimit="10" stroke-linejoin="miter" fill="none" stroke="#FFFFFF" d="M 0 0 L 113.38724 0 M 0 28.3468 L 113.38724 28.3468 M 0 56.69362 L 113.38724 56.69362 M 0 85.04042 L 113.38724 85.04042 M 0 113.37727 L 113.38724 113.37727 M 0 0 L 0 113.38724 M 28.3468 0 L 28.3468 113.38724 M 56.69362 0 L 56.69362 113.38724 M 85.04042 0 L 85.04042 113.38724 M 113.37727 0 L 113.37727 113.38724 M 113.38724 113.38724 "/>
<path transform="matrix(2.76625,0,0,-2.76625,560.6304,386.95756)" stroke-width=".09962" stroke-linecap="butt" stroke-miterlimit="10" stroke-linejoin="miter" fill="none" stroke="#FFFFFF" d="M 0 113.38724 L -20.04422 133.43148 "/>
<use xlink:href="#font_0_1" transform="matrix(17.538416,17.538416,17.538416,-17.538416,526.13418,25.623322)"/>
<use xlink:href="#font_0_2" transform="matrix(17.538416,17.538416,17.538416,-17.538416,539.8316,39.32083)"/>
<use xlink:href="#font_0_3" transform="matrix(17.538416,17.538416,17.538416,-17.538416,500.09889,50.70004)"/>
<use xlink:href="#font_0_4" transform="matrix(17.538416,17.538416,17.538416,-17.538416,514.4979,64.3274)"/>
<use xlink:href="#font_1_1" transform="matrix(27.55904,0,0,-27.55904,587.1325,43.58619)"/>
<use xlink:href="#font_1_1" transform="matrix(27.55904,0,0,-27.55904,600.91207,43.58619)"/>
<use xlink:href="#font_1_1" transform="matrix(27.55904,0,0,-27.55904,665.5474,43.58619)"/>
<use xlink:href="#font_1_2" transform="matrix(27.55904,0,0,-27.55904,680.70486,42.97989)"/>
<use xlink:href="#font_1_2" transform="matrix(27.55904,0,0,-27.55904,745.33749,42.97989)"/>
<use xlink:href="#font_1_2" transform="matrix(27.55904,0,0,-27.55904,759.11697,42.97989)"/>
<use xlink:href="#font_1_2" transform="matrix(27.55904,0,0,-27.55904,823.7496,42.97989)"/>
<use xlink:href="#font_1_1" transform="matrix(27.55904,0,0,-27.55904,836.1512,43.58619)"/>
<use xlink:href="#font_1_1" transform="matrix(27.55904,0,0,-27.55904,508.7204,121.99836)"/>
<use xlink:href="#font_1_1" transform="matrix(27.55904,0,0,-27.55904,522.4999,121.99836)"/>
<use xlink:href="#font_1_1" transform="matrix(27.55904,0,0,-27.55904,508.7204,200.41324)"/>
<use xlink:href="#font_1_2" transform="matrix(27.55904,0,0,-27.55904,523.8778,199.80695)"/>
<use xlink:href="#font_1_2" transform="matrix(27.55904,0,0,-27.55904,510.09837,278.219)"/>
<use xlink:href="#font_1_2" transform="matrix(27.55904,0,0,-27.55904,523.8778,278.219)"/>
<use xlink:href="#font_1_2" transform="matrix(27.55904,0,0,-27.55904,510.09837,356.6312)"/>
<use xlink:href="#font_1_1" transform="matrix(27.55904,0,0,-27.55904,522.4999,357.2375)"/>
<use xlink:href="#font_1_2" transform="matrix(27.55904,0,0,-27.55904,595.4012,199.80695)"/>
<use xlink:href="#font_1_2" transform="matrix(27.55904,0,0,-27.55904,673.8133,199.80695)"/>
<use xlink:href="#font_1_2" transform="matrix(27.55904,0,0,-27.55904,595.4012,278.219)"/>
<use xlink:href="#font_1_2" transform="matrix(27.55904,0,0,-27.55904,673.8133,278.219)"/>
<use xlink:href="#font_1_2" transform="matrix(27.55904,0,0,-27.55904,752.2282,278.219)"/>
<path transform="matrix(2.76625,0,0,-2.76625,560.6304,386.95756)" d="M 5.66928 76.38232 L 5.66928 37.00493 C 5.66928 35.35422 7.0074 34.0161 8.65811 34.0161 L 48.0355 34.0161 C 49.68622 34.0161 51.02434 35.35422 51.02434 37.00493 L 51.02434 76.38232 C 51.02434 78.03302 49.68622 79.37115 48.0355 79.37115 L 8.65811 79.37115 C 7.0074 79.37115 5.66928 78.03302 5.66928 76.38232 Z M 51.02434 34.0161 " fill="#0000ff" fill-opacity=".25"/>
<path transform="matrix(2.76625,0,0,-2.76625,560.6304,386.95756)" stroke-width=".3985" stroke-linecap="butt" stroke-miterlimit="10" stroke-linejoin="miter" fill="none" stroke="#FFFFFF" d="M 5.66928 76.38232 L 5.66928 37.00493 C 5.66928 35.35422 7.0074 34.0161 8.65811 34.0161 L 48.0355 34.0161 C 49.68622 34.0161 51.02434 35.35422 51.02434 37.00493 L 51.02434 76.38232 C 51.02434 78.03302 49.68622 79.37115 48.0355 79.37115 L 8.65811 79.37115 C 7.0074 79.37115 5.66928 78.03302 5.66928 76.38232 Z M 51.02434 34.0161 "/>
<path transform="matrix(2.76625,0,0,-2.76625,560.6304,386.95756)" d="M 34.0161 48.0355 L 34.0161 37.00493 C 34.0161 35.35422 35.35422 34.0161 37.00493 34.0161 L 76.38232 34.0161 C 78.03302 34.0161 79.37115 35.35422 79.37115 37.00493 L 79.37115 48.0355 C 79.37115 49.68622 78.03302 51.02434 76.38232 51.02434 L 37.00493 51.02434 C 35.35422 51.02434 34.0161 49.68622 34.0161 48.0355 Z M 79.37115 34.0161 " fill="#00ff00" fill-opacity=".25"/>
<path transform="matrix(2.76625,0,0,-2.76625,560.6304,386.95756)" stroke-width=".3985" stroke-linecap="butt" stroke-miterlimit="10" stroke-linejoin="miter" fill="none" stroke="#FFFFFF" d="M 34.0161 48.0355 L 34.0161 37.00493 C 34.0161 35.35422 35.35422 34.0161 37.00493 34.0161 L 76.38232 34.0161 C 78.03302 34.0161 79.37115 35.35422 79.37115 37.00493 L 79.37115 48.0355 C 79.37115 49.68622 78.03302 51.02434 76.38232 51.02434 L 37.00493 51.02434 C 35.35422 51.02434 34.0161 49.68622 34.0161 48.0355 Z M 79.37115 34.0161 "/>
<symbol id="font_2_7">
<path d="M .15100001 .33 C .15100001 .34900005 .15100001 .35000003 .162 .36600004 C .19600001 .41200004 .245 .42800004 .28300003 .42800004 C .326 .42800004 .36600004 .404 .39200003 .36200003 C .418 .31900005 .42000003 .26000003 .42000003 .22800002 C .42000003 .18100001 .41400004 .128 .388 .08800001 C .36600004 .056 .32500003 .025000003 .272 .025000003 C .227 .025000003 .18900001 .049000004 .165 .086 C .15100001 .107 .15100001 .108 .15100001 .127 L .15100001 .33 M .142 .072000008 C .17300001 .028 .22300002 0 .277 0 C .39600004 0 .50600007 .096 .50600007 .22700002 C .50600007 .35200004 .407 .45300005 .287 .45300005 C .21900001 .45300005 .172 .418 .148 .39100004 L .148 .705 L 0 .694 L 0 .663 C .068 .663 .07700001 .656 .07700001 .607 L .07700001 .011000001 L .105000007 .011000001 L .142 .072000008 Z "/>
</symbol>
<use xlink:href="#font_2_2" transform="matrix(24.906666,0,0,-24.906666,610.7239,442.41288)"/>
<use xlink:href="#font_2_7" transform="matrix(24.906666,0,0,-24.906666,618.9182,436.4851)"/>
<use xlink:href="#font_2_3" transform="matrix(24.906666,0,0,-24.906666,633.8373,442.41288)"/>
<use xlink:href="#font_0_5" transform="matrix(24.906666,0,0,-24.906666,652.21719,441.317)"/>
<symbol id="font_3_1">
<path d="M .25300003 .43100003 C .26 .446 .26200003 .45700003 .26200003 .46300004 C .26200003 .49400006 .23400001 .52000007 .20100002 .52000007 C .16100002 .52000007 .149 .48500005 .14500001 .47100006 L .004999995 .043 C .0029999987 .037000006 0 .029000003 0 .025000003 C 0 .008000001 .04 0 .041 0 C .050000006 0 .053999999 .009 .058 .017 L .25300003 .43100003 Z "/>
</symbol>
<use xlink:href="#font_3_1" transform="matrix(16.604445,0,0,-16.604445,667.0212,424.98298)"/>
<use xlink:href="#font_2_5" transform="matrix(24.906666,0,0,-24.906666,681.9947,433.04798)"/>
<use xlink:href="#font_2_1" transform="matrix(24.906666,0,0,-24.906666,716.1156,416.01878)" fill="#0000ff"/>
<use xlink:href="#font_0_1" transform="matrix(24.906666,0,0,-24.906666,708.516,436.21113)" fill="#0000ff"/>
<use xlink:href="#font_0_4" transform="matrix(24.906666,0,0,-24.906666,727.9183,436.21113)" fill="#0000ff"/>
<use xlink:href="#font_2_4" transform="matrix(24.906666,0,0,-24.906666,755.71688,438.50254)"/>
<use xlink:href="#font_0_2" transform="matrix(24.906666,0,0,-24.906666,781.0678,436.21113)" fill="#00ff00"/>
<use xlink:href="#font_0_3" transform="matrix(24.906666,0,0,-24.906666,801.7902,436.75907)" fill="#00ff00"/>
<use xlink:href="#font_0_4" transform="matrix(24.906666,0,0,-24.906666,821.6906,436.21113)" fill="#00ff00"/>
</g>
</svg>
